<svg width="24" height="24" viewBox="0 0 24 24" fill="none" xmlns="http://www.w3.org/2000/svg">
<path d="M8.08 20C9.5587 20.0495 11.0323 19.802 12.4137 19.2723C13.7952 18.7426 15.0564 17.9413 16.1229 16.9158C17.1894 15.8903 18.0395 14.6615 18.623 13.3019C19.2065 11.9423 19.5115 10.4795 19.52 9C20.1977 8.16141 20.7008 7.19583 21 6.16C21.0223 6.07816 21.0205 5.99161 20.9948 5.91077C20.9691 5.82993 20.9206 5.75825 20.855 5.70436C20.7895 5.65047 20.7098 5.61667 20.6255 5.60702C20.5413 5.59738 20.456 5.6123 20.38 5.65C20.0255 5.82065 19.6264 5.87578 19.2388 5.8076C18.8513 5.73943 18.495 5.5514 18.22 5.27C17.869 4.88558 17.4443 4.57553 16.9712 4.35823C16.4982 4.14092 15.9863 4.02079 15.466 4.00493C14.9456 3.98908 14.4274 4.07783 13.9419 4.26594C13.4565 4.45404 13.0138 4.73766 12.64 5.1C12.1282 5.59566 11.7533 6.21529 11.5518 6.89867C11.3503 7.58206 11.329 8.30595 11.49 9C8.14 9.2 5.84 7.61 4 5.43C3.94473 5.3674 3.87242 5.32225 3.79191 5.30007C3.71139 5.27788 3.62617 5.27962 3.54663 5.30508C3.46709 5.33053 3.39668 5.37859 3.34401 5.44339C3.29133 5.5082 3.25867 5.58694 3.25 5.67C2.89947 7.61442 3.15233 9.61955 3.97462 11.4161C4.79691 13.2126 6.14925 14.7145 7.85 15.72C6.70964 17.0278 5.10821 17.8447 3.38 18C3.28741 18.0154 3.20194 18.0593 3.13555 18.1256C3.06916 18.1919 3.02518 18.2774 3.00975 18.37C2.99432 18.4625 3.00822 18.5576 3.04951 18.6419C3.09079 18.7262 3.1574 18.7954 3.24 18.84C4.74352 19.5914 6.39923 19.9882 8.08 20Z" fill="white"/>
</svg>
