<svg width="23" height="23" viewBox="0 0 23 23" fill="none" xmlns="http://www.w3.org/2000/svg">
<path d="M22.3652 2.52956C22.9677 1.95124 22.9677 0.987729 22.3653 0.409381C21.7966 -0.136528 20.8985 -0.136505 20.3299 0.409433L11.4086 8.97481L2.48721 0.409432C1.91858 -0.136506 1.02048 -0.136529 0.451824 0.40938C-0.150622 0.987728 -0.150599 1.95124 0.451875 2.52956L9.28753 11.011L0.451877 19.4923C-0.150598 20.0707 -0.15062 21.0342 0.451827 21.6125C1.02048 22.1584 1.91858 22.1584 2.4872 21.6125L11.4086 13.0471L20.3299 21.6125C20.8985 22.1584 21.7966 22.1584 22.3653 21.6125C22.9677 21.0342 22.9677 20.0707 22.3652 19.4923L13.5296 11.011L22.3652 2.52956Z" fill="#025595"/>
</svg>
